# xmcd
#
# Track frame offsets: 
#        150
#        14144
#        24594
#        41699
#        55724
#        79533
#        90637
#        107256
#        120982
#        134192
#        147769
#        159500
#        172714
#        194539
#        203815
#        216291
#
# Disc length: 3094 seconds
#
# Revision: 0
# Processed by: cddbd v1.5.2PL0 Copyright (c) Steve Scherf et al.
# Submitted via: ExactAudioCopyFreeDBPlugin 1.0
#
DISCID=d50c1410
DTITLE=Eric Clapton and Friends - The Breeze - An Apprention Of JJ Cale
DYEAR=2014
DGENRE=Blues
TTITLE0=Call Me The Breeze
TTITLE1=Rock 'n' Roll Records [feat Tom Petty]
TTITLE2=Someday [feat Mark Knopfler]
TTITLE3=Lies [feat John Mayer]
TTITLE4=Sensitive Kid [feat Don White]
TTITLE5=Cajun Moon
TTITLE6=Magnolia [feat John Mayer]
TTITLE7=I Got The Same Old Blues [feat Tom Petty]
TTITLE8=Songbird [feat Willie Nelson]
TTITLE9=Since You Said Godbye
TTITLE10=I'll Be There (If You Want Me) [feat Don White]
TTITLE11=The Old Man And Me [feat Tom Petty]
TTITLE12=Train To Nowhere [feat Mark Knopfler and Don White]
TTITLE13=Starbound [feat Willie Nelson and Derek Trucks]
TTITLE14=Don't Wait [feat John Mayer]
TTITLE15=Crying Eyes [feat Christine Lakeland and Derek Trucks]
EXTD=
EXTT0=
EXTT1=
EXTT2=
EXTT3=
EXTT4=
EXTT5=
EXTT6=
EXTT7=
EXTT8=
EXTT9=
EXTT10=
EXTT11=
EXTT12=
EXTT13=
EXTT14=
EXTT15=
PLAYORDER=
